<svg xmlns="http://www.w3.org/2000/svg" viewBox="0 0 64 64" id="notepad-large" aria-hidden="true" role="none" data-supported-dps="64x64" width="64" height="64">
  <path fill="#fde2bc" d="M5 14h49v50H5z"/>
  <path d="M54 5.88V14H5V5.88C5 3.73 6.75 1.99 8.9 2h41.25A3.89 3.89 0 0154 5.88z" fill="#56687a"/>
  <path d="M14 11c-.55 0-1-.45-1-1V1c0-.55.45-1 1-1s1 .45 1 1v9c0 .55-.45 1-1 1zM45 11c-.55 0-1-.45-1-1V1c0-.55.45-1 1-1s1 .45 1 1v9c0 .55-.45 1-1 1z" fill="#c0d1e2"/>
  <path d="M44 27H14c-.55 0-1-.45-1-1s.45-1 1-1h30c.55 0 1 .45 1 1s-.45 1-1 1zM44 36H14c-.55 0-1-.45-1-1s.45-1 1-1h30c.55 0 1 .45 1 1s-.45 1-1 1zM44 45H14c-.55 0-1-.45-1-1s.45-1 1-1h30c.55 0 1 .45 1 1s-.45 1-1 1zM30 54H14c-.55 0-1-.45-1-1s.45-1 1-1h16c.55 0 1 .45 1 1s-.45 1-1 1z" fill="#38434f"/>
  <path fill="#56687a" d="M38.03 59l3.5-2.81-3.5-1.74V59z"/>
  <path fill="#edf3f8" d="M38.03 54.45l3.5 1.74 3.22-2.54L47 48.9l-6.76-3.38L38 50.29l.03 4.16z"/>
  <path d="M61.08 10.2l2.06 1c.76.38 1.07 1.29.71 2.06l-19.1 40.39a4.007 4.007 0 01-1.83-5.28L61.08 10.2z" fill="#e7a33e"/>
  <path d="M61.08 10.2L59 9.16c-.75-.36-1.64-.04-2 .7L38 50.29c1.8.86 3.97.1 4.83-1.71l.09-.21L61.08 10.2z" fill="#f8c77e"/>
</svg>
